<svg xmlns="http://www.w3.org/2000/svg" width="256" height="256" viewBox="0 0 256 256"><path d="M 106 199 Q 75 181 58 108 Q 105 104 124 186 Q 123 129 102 60 Q 148 78 142 175 Q 155 105 201 75 Q 206 142 151 190 Q 141 136 168 21 Q 188 78 156 175 Q 118 119 62 48 Q 48 104 111 187 Z" fill="#91bda1" stroke="#2e3436" stroke-width="5" stroke-linecap="round" stroke-linejoin="round" /><path d="M 128 206 L 133 139 M 121 185 L 76 73 M 148 188 L 187 105 M 144 170 L 167 55" fill="none" stroke="#567e58" stroke-width="4" stroke-linecap="round" stroke-linejoin="round" /><path d="M 66 192 Q 122 172 184 193 L 173 234 Q 124 259 79 234 Z" fill="#c58e63" stroke="#2e3436" stroke-width="5" stroke-linecap="round" stroke-linejoin="round" /><ellipse cx="125" cy="191" rx="60" ry="16" fill="#ad7857" stroke="#2e3436" stroke-width="5" /><path d="M 89 214 l 5 14 M 156 214 l -3 14" fill="none" stroke="#e1b87b" stroke-width="4" stroke-linecap="round" stroke-linejoin="round" /></svg>