<svg xmlns="http://www.w3.org/2000/svg" width="256" height="256" viewBox="0 0 256 256"><ellipse cx="127" cy="228" rx="113" ry="15" fill="#344b42" stroke="none" stroke-width="5" opacity=".16"/><path d="M 16 189 L 47 125 L 89 117 L 121 169 L 107 225 L 50 232 Z" fill="#778c83" stroke="#2e3436" stroke-width="6" stroke-linecap="round" stroke-linejoin="round" /><path d="M 47 125 L 64 178 L 16 189 M 64 178 L 107 225 M 64 178 L 121 169" fill="none" stroke="#4b645f" stroke-width="4" stroke-linecap="round" stroke-linejoin="round" /><path d="M 130 158 L 159 111 L 206 121 L 235 162 L 223 218 L 170 229 L 135 201 Z" fill="#9eaa93" stroke="#2e3436" stroke-width="6" stroke-linecap="round" stroke-linejoin="round" /><path d="M 159 111 L 175 170 L 206 121 M 175 170 L 223 218 M 175 170 L 135 201" fill="none" stroke="#687c6c" stroke-width="4" stroke-linecap="round" stroke-linejoin="round" /><path d="M 26 192 L 199 56 L 214 64 L 211 79 L 221 83 L 57 224 L 36 217 Z" fill="#c69766" stroke="#2e3436" stroke-width="5" stroke-linecap="round" stroke-linejoin="round" /><path d="M 43 197 L 187 81 M 58 207 L 198 88" fill="none" stroke="#e4bf89" stroke-width="3" stroke-linecap="round" stroke-linejoin="round" /><path d="M 63 96 L 72 78 L 219 183 L 211 200 L 188 197 Z" fill="#bb875d" stroke="#2e3436" stroke-width="5" stroke-linecap="round" stroke-linejoin="round" /><path d="M 79 99 L 204 186" fill="none" stroke="#e2b582" stroke-width="3" stroke-linecap="round" stroke-linejoin="round" /><path d="M 41 87 L 61 74 L 71 43 L 99 36 L 104 54 L 91 72 L 86 103 L 64 117 Z" fill="#708e8a" stroke="#2e3436" stroke-width="5" stroke-linecap="round" stroke-linejoin="round" /><path d="M 74 44 L 95 40 M 56 88 l 10 -3" fill="none" stroke="#a3b7a0" stroke-width="3" stroke-linecap="round" stroke-linejoin="round" /><ellipse cx="125" cy="185" rx="9" ry="9" fill="#80694d" stroke="#2e3436" stroke-width="3" /><ellipse cx="125" cy="185" rx="3" ry="3" fill="#fff4d9" stroke="#2e3436" stroke-width="2" /><path d="M 17 236 L 29 224 L 47 230 L 43 243 Z" fill="#b7b299" stroke="#2e3436" stroke-width="3" stroke-linecap="round" stroke-linejoin="round" /><path d="M 235 221 L 244 232 L 238 241 L 227 236 Z" fill="#748b7f" stroke="#2e3436" stroke-width="3" stroke-linecap="round" stroke-linejoin="round" /></svg>